# xmcd CD database file generated by RipIT.
#
# Track frame offsets:
# 150
# 16232
# 33152
# 44139
# 63041
# 79966
# 99338
# 112660
# 124449
# 142270
# 158184
# 175422
# 190363
# 208419
# 225401
#
# Disc length: 3179 seconds
#
# Revision: 1
# Processed by: cddbd v1.5.1PL2 Copyright (c) Steve Scherf et al.
# Submitted via: RipIT 3.4 www.suwald.com/ripit/ripit.html at Tue Jan 3 11:04:37 CET 2006.
#
DISCID=d00c690f
DTITLE=Enya - The Best Of Enya
DYEAR=2002
DGENRE=Pop
TTITLE0=May It Be
TTITLE1=The Council Of Elrond Featurig
TTITLE2=Watermark
TTITLE3=Paint The Sky With Stars
TTITLE4=Shepherd Moons
TTITLE5=The Memory Of Trees
TTITLE6=The Celt
TTITLE7=A Day Without Rain
TTITLE8=On Your Shove
TTITLE9=The Long Ships
TTITLE10=Evening Falls
TTITLE11=March Of The Celts
TTITLE12=I Want Tomoorow
TTITLE13=Anywhere Is
TTITLE14=The Sun In The Stream
EXTD=
EXTT0=
EXTT1=
EXTT2=
EXTT3=
EXTT4=
EXTT5=
EXTT6=
EXTT7=
EXTT8=
EXTT9=
EXTT10=
EXTT11=
EXTT12=
EXTT13=
EXTT14=
PLAYORDER=
